<svg t="1676123760212" class="icon" viewBox="0 0 1024 1024" version="1.1"
    xmlns="http://www.w3.org/2000/svg" p-id="890" width="640" height="480">
    <path
        d="M832 64a64 64 0 0 1 64 64v768a64 64 0 0 1-64 64H192a64 64 0 0 1-64-64V128a64 64 0 0 1 64-64h640z m0 64H192v768h640V128zM340.48 491.136a32 32 0 0 1 40.832 3.712l3.712 4.48a32 32 0 0 1-3.712 40.768L345.344 576H544l5.76 0.512A32 32 0 0 1 544 640H345.472l35.84 35.84 3.712 4.48a32 32 0 0 1-48.96 40.832L254.592 639.68l-4.032-4.608a44.8 44.8 0 0 1 4.032-58.752L336 494.848z m343.104-192l4.48 3.712 81.408 81.472a44.8 44.8 0 0 1 4.032 58.752l-4.032 4.608-81.408 81.472a32 32 0 0 1-48.96-40.832l3.712-4.48 35.776-35.84H480a32 32 0 0 1-5.76-63.488L480 384h198.72l-35.904-35.84a32 32 0 0 1-3.712-40.896l3.712-4.416a32 32 0 0 1 40.768-3.712z"
        p-id="891"></path>
</svg>