<svg t="1676123778723" class="icon" viewBox="0 0 1024 1024" version="1.1"
    xmlns="http://www.w3.org/2000/svg" p-id="1033" width="200" height="200">
    <path
        d="M736 64a32 32 0 0 1 31.488 26.24L768 96V128h96a64 64 0 0 1 64 64v704a64 64 0 0 1-64 64h-704a64 64 0 0 1-64-64V192a64 64 0 0 1 64-64H256v-32a32 32 0 0 1 63.488-5.76L320 96V128h384v-32a32 32 0 0 1 32-32z m-384 704h-192v128h192v-128z m512-192h-448v320h448V576z m-128 50.752l45.248 45.248L608 845.248 498.752 736l45.248-45.248 64 64 128-128zM352 576h-192v128h192V576z m0-192h-192v128h192V384z m512 0h-192v128h192V384z m-256 0h-192v128h192V384zM256 192H160v128h704V192H768v32a32 32 0 0 1-63.488 5.76L704 224V192H320v32a32 32 0 0 1-63.488 5.76L256 224V192z"
        p-id="1034"></path>
</svg>